<svg width="623" height="660" viewBox="0 0 623 660" fill="none" xmlns="http://www.w3.org/2000/svg">
  <path d="M277.97 443.13L353.74 461.28L344.95 355.1L278.03 360.64L277.97 443.13Z" fill="#F3A3A6"/>
  <path d="M332.17 385.5C372.906 385.5 405.93 352.477 405.93 311.74C405.93 271.003 372.906 237.98 332.17 237.98C291.433 237.98 258.41 271.003 258.41 311.74C258.41 352.477 291.433 385.5 332.17 385.5Z" fill="#F3A3A6"/>
  <path d="M410 644.189C409.41 644.406 408.83 644.602 408.24 644.797C408.07 644.852 407.9 644.917 407.729 644.971C401.478 647.079 395.137 648.959 388.725 650.633C365.33 656.762 340.895 660 315.779 660C308.718 660 301.716 659.75 294.785 659.239C287.693 658.729 280.672 657.957 273.73 656.925C270.909 656.512 268.109 656.066 265.318 655.566C257.366 654.165 249.505 652.415 241.763 650.361C239.152 649.677 236.552 648.948 233.961 648.166C233.071 647.916 232.181 647.644 231.301 647.373C227.65 646.253 224.019 645.069 220.418 643.798C220.178 643.722 219.928 643.635 219.688 643.548C216.467 642.418 213.267 641.222 210.086 639.973C207.225 638.853 204.385 637.68 201.554 636.463C195.263 633.768 189.081 630.855 183 627.726L185.341 616.207L193.452 576.304L211.066 489.608L228.87 402L275.65 403.413H275.67L277.951 403.489L349.097 405.64L380.223 406.586L410 644.189Z" fill="#DADBDC"/>
  <path d="M479.99 615.489C470.537 622.049 460.733 628.05 450.638 633.459C448.139 634.801 445.61 636.097 443.071 637.371C442.62 637.594 442.178 637.818 441.727 638.03C439.539 639.114 437.341 640.165 435.124 641.182L434.13 641.651C433.548 641.919 432.966 642.188 432.374 642.445C425.079 645.73 417.653 648.726 410.097 651.374C409.505 651.598 408.923 651.799 408.33 652L342.863 465.444L338.437 452.849L326.094 417.656L322 406L349.024 406.469L380.223 407.017C408.541 411.051 432.023 433.369 440.061 463.868L480 615.489L479.99 615.489Z" fill="#DADBDC"/>
  <path d="M280.43 345.44C283.05 345 285.67 344.55 288.29 344.11C288.91 330.1 290.26 314.47 300.75 305.16C306.53 300.03 314.89 297.04 317.76 289.86C320.14 283.91 317.92 276.6 321.24 271.12C324.73 265.35 332.53 264.32 339.27 263.9C349.82 263.25 360.56 262.61 370.83 265.11C381.1 267.62 391.01 273.8 395.39 283.42C396.74 286.38 397.52 289.57 398.3 292.73C400.93 303.42 404.96 323.76 404.96 323.76C404.96 323.76 405.74 319.55 407.96 311.36C412.49 304.88 418.02 298.9 420.68 291.46C423.88 282.5 422.47 272.49 419.33 263.52C412.2 243.11 395.66 225.86 375.06 219.3C354.45 212.75 334.96 209.04 319.56 224.22C316.67 227.07 314.07 230.25 310.77 232.61C304.67 236.98 296.88 238.08 290 241.1C274.69 247.82 260.85 263.98 257.4 280.34C253.95 296.7 255.75 313.65 257.57 330.28C259.14 344.62 265.95 360.61 277.89 368.71C278.38 361.37 278.87 354.04 279.36 346.7L280.42 345.45H280.43V345.44Z" fill="#2F2E43"/>
  <path d="M321 417.453L320.281 418.823L300.18 457.069L270.378 513.809L264.34 525.299L242.322 567.216C242.322 567.216 235.176 578.915 223.119 593.913L223.079 593.959C218.698 599.396 213.677 605.263 208.118 611.153C208.078 611.211 208.038 611.258 207.988 611.293C201.202 618.496 193.616 625.733 185.412 632.297C182.039 635.004 178.565 637.584 175.012 640C174.284 639.582 173.565 639.14 172.846 638.71C138.692 618.066 108.251 590.253 83 556.98C109.359 507.977 161.518 453.026 195.123 420.299C214.137 401.769 239.537 394.787 263.651 401.502L275.528 404.801L277.823 405.44L321 417.453Z" fill="#DADBDC"/>
  <path d="M415.22 404.25C402.25 399.58 367.92 399.56 352.52 404.76C349.53 405.77 347.72 408.81 348.24 411.92L348.85 415.61C347.51 415.41 346.2 415.03 344.96 414.46C341.29 412.78 334.06 410.5 326.76 414.14C321.66 416.68 318.07 421.47 316.81 427.04C313.8 440.36 321.39 447.73 321.39 447.73L331.5 457.22C339.97 465.16 349.21 472.24 359.08 478.34L359.28 478.46L355.68 456.8C353.65 460.37 349.06 461.54 345.57 459.38C336.75 453.92 322.34 442.98 324.09 430.56C325.31 421.9 330.12 420.06 334.74 420.45C339.91 420.89 344.42 424.14 346.63 428.83C347.16 429.95 348.03 430.87 349.11 431.47L351.71 432.89L359.33 478.8C359.67 480.86 360.99 482.64 362.86 483.56C380.78 492.35 400.12 487.79 406.81 485.74C408.34 485.27 409.65 484.26 410.47 482.88L411.91 480.49C412.41 479.67 412.71 478.74 412.81 477.79L419.46 410.97C419.75 408.02 418 405.26 415.21 404.25L415.22 404.25Z" fill="#FBC740"/>
  <path d="M384.17 410.64C400.81 410.64 414.3 409.368 414.3 407.8C414.3 406.231 400.81 404.96 384.17 404.96C367.53 404.96 354.04 406.231 354.04 407.8C354.04 409.368 367.53 410.64 384.17 410.64Z" fill="#DEDFE0"/>
  <path d="M323.98 464.72C340.33 452.21 346.8 433.4 338.43 422.71C330.07 412.02 310.04 413.49 293.68 426.01C287.08 430.92 281.8 437.38 278.31 444.85L209.75 498.74L236.97 531.3L301.67 474.71C309.86 473.24 317.51 469.81 323.97 464.72H323.98Z" fill="#F3A3A6"/>
  <path d="M278.62 511.54L251.5 463.84L152.81 510.28L208.03 581.26L278.62 511.54Z" fill="#DADBDC"/>
  <path opacity="0.1" d="M219.47 478.91C219.47 478.91 147.53 531.58 150.19 531.29C152.85 531 188.32 511.49 188.32 511.49L219.47 478.91Z" fill="#272223"/>
</svg>
